<svg id="it-network-bg" width="500" height="390" viewBox="120 5 530 390" xmlns="http://www.w3.org/2000/svg">
  <defs>
    <linearGradient id="serverGrad" x1="0%" y1="0%" x2="100%" y2="100%">
      <stop offset="0%" style="stop-color:#3B82F6;"/>
      <stop offset="100%" style="stop-color:#1E3A8A;"/>
    </linearGradient>
    <linearGradient id="routerGrad" x1="0%" y1="0%" x2="100%" y2="100%">
      <stop offset="0%" style="stop-color:#8B5CF6;"/>
      <stop offset="100%" style="stop-color:#5B21B6;"/>
    </linearGradient>
    <linearGradient id="dbGrad" x1="0%" y1="0%" x2="100%" y2="100%">
      <stop offset="0%" style="stop-color:#10B981;"/>
      <stop offset="100%" style="stop-color:#047857;"/>
    </linearGradient>
    <linearGradient id="switchGrad" x1="0%" y1="0%" x2="100%" y2="100%">
      <stop offset="0%" style="stop-color:#6366F1;"/>
      <stop offset="100%" style="stop-color:#3730A3;"/>
    </linearGradient>
    <linearGradient id="deviceGrad" x1="0%" y1="0%" x2="100%" y2="100%">
      <stop offset="0%" style="stop-color:#1E3A8A;"/>
      <stop offset="100%" style="stop-color:#3B82F6;"/>
    </linearGradient>
    <linearGradient id="cylinderGrad" x1="0%" y1="0%" x2="100%" y2="0%">
      <stop offset="0%" style="stop-color:#3B82F6;"/>
      <stop offset="100%" style="stop-color:#1E3A8A;"/>
    </linearGradient>
    <linearGradient id="cloudGrad" x1="0%" y1="0%" x2="100%" y2="100%">
      <stop offset="0%" style="stop-color:#FFFFFF;"/>
      <stop offset="50%" style="stop-color:#FFFFFF;"/>
      <stop offset="100%" style="stop-color:#FEFEFE;"/>
    </linearGradient>
    <linearGradient id="connectionGrad" x1="0%" y1="0%" x2="100%" y2="100%">
      <stop offset="0%" style="stop-color:#3B82F6;"/>
      <stop offset="50%" style="stop-color:#8B5CF6;"/>
      <stop offset="100%" style="stop-color:#10B981;"/>
    </linearGradient>
    <filter id="glow">
      <feGaussianBlur stdDeviation="2" result="coloredBlur"/>
      <feMerge> 
        <feMergeNode in="coloredBlur"/>
        <feMergeNode in="SourceGraphic"/>
      </feMerge>
    </filter>
    <clipPath id="dbClipLarge">
      <rect x="0" y="50" width="60" height="10"/>
    </clipPath>
    <clipPath id="dbClipSmall">
      <rect x="0" y="29" width="40" height="6"/>
    </clipPath>
    
    <!-- Path Definitions for Animated Dots -->
    <path id="path-db-large" d="M 280,95 Q 320,130 400,200"/>
    <path id="path-server-small" d="M 502,110 Q 480,140 400,200"/>
    <path id="path-router" d="M 575,190 Q 520,195 400,200"/>
    <path id="path-laptop" d="M 485,325 Q 450,280 400,200"/>
    <path id="path-server-large" d="M 315,325 Q 350,270 400,200"/>
    <path id="path-db-small" d="M 410,322 Q 405,260 400,200"/>
    <path id="path-desktop" d="M 184,272 Q 250,230 400,200"/>
    <path id="path-switch" d="M 200,172 Q 280,180 400,200"/>
    <path id="path-smartphone" d="M 531,260 Q 480,220 400,200"/>
    
    <!-- Hub to Cloud Path Definitions -->
    <path id="path-hub-cloud-1" d="M 395,180 Q 385,130 390,78"/>
    <path id="path-hub-cloud-2" d="M 400,180 Q 390,125 396,78"/>
    <path id="path-hub-cloud-3" d="M 405,180 Q 410,125 402,78"/>
    <path id="path-hub-cloud-4" d="M 410,180 Q 415,130 408,78"/>
  </defs>

  <!-- Connection Lines (rendered behind all other elements) -->
  <g id="connection-lines">
    <!-- Large Database to Hub -->
    <path d="M 280,95 Q 320,130 400,200" stroke="#FFFFFF" stroke-width="1" stroke-opacity="0.5" fill="none"/>
    
    <!-- Small Server to Hub -->
    <path d="M 502,110 Q 480,140 400,200" stroke="#FFFFFF" stroke-width="1" stroke-opacity="0.5" fill="none"/>
    
    <!-- Router to Hub -->
    <path d="M 575,190 Q 520,195 400,200" stroke="#FFFFFF" stroke-width="1" stroke-opacity="0.5" fill="none"/>
    
    <!-- Laptop to Hub -->
    <path d="M 485,325 Q 450,280 400,200" stroke="#FFFFFF" stroke-width="1" stroke-opacity="0.5" fill="none"/>
    
    <!-- Large Server to Hub -->
    <path d="M 315,325 Q 350,270 400,200" stroke="#FFFFFF" stroke-width="1" stroke-opacity="0.5" fill="none"/>
    
    <!-- Small Database to Hub -->
    <path d="M 410,322 Q 405,260 400,200" stroke="#FFFFFF" stroke-width="1" stroke-opacity="0.5" fill="none"/>
    
    <!-- Desktop to Hub -->
    <path d="M 184,272 Q 250,230 400,200" stroke="#FFFFFF" stroke-width="1" stroke-opacity="0.5" fill="none"/>
    
    <!-- Network Switch to Hub -->
    <path d="M 200,172 Q 280,180 400,200" stroke="#FFFFFF" stroke-width="1" stroke-opacity="0.5" fill="none"/>
    
    <!-- Smartphone to Hub -->
    <path d="M 531,260 Q 480,220 400,200" stroke="#FFFFFF" stroke-width="1" stroke-opacity="0.5" fill="none"/>

    <!-- Hub to Cloud Connection Lines -->
    <path d="M 395,180 Q 385,130 390,78" stroke="#FFFFFF" stroke-width="1" stroke-opacity="0.5" fill="none"/>
    <path d="M 400,180 Q 390,125 396,78" stroke="#FFFFFF" stroke-width="1" stroke-opacity="0.5" fill="none"/>
    <path d="M 405,180 Q 410,125 402,78" stroke="#FFFFFF" stroke-width="1" stroke-opacity="0.5" fill="none"/>
    <path d="M 410,180 Q 415,130 408,78" stroke="#FFFFFF" stroke-width="1" stroke-opacity="0.5" fill="none"/>

  </g>

  <!-- Animated Data Dots Moving Along Connection Lines -->
  <g id="data-dots">
    <!-- Large Database to Hub Dot -->
    <circle r="3" fill="#10B981" opacity="0.8">
      <animateMotion dur="8s" repeatCount="indefinite">
        <mpath href="#path-db-large"/>
      </animateMotion>
    </circle>
    
    <!-- Small Server to Hub Dot -->
    <circle r="2.5" fill="#3B82F6" opacity="0.8">
      <animateMotion dur="7s" repeatCount="indefinite">
        <mpath href="#path-server-small"/>
      </animateMotion>
    </circle>
    
    <!-- Router to Hub Dot -->
    <circle r="2.5" fill="#8B5CF6" opacity="0.8">
      <animateMotion dur="6s" repeatCount="indefinite">
        <mpath href="#path-router"/>
      </animateMotion>
    </circle>
    
    <!-- Laptop to Hub Dot -->
    <circle r="2" fill="#60A5FA" opacity="0.8">
      <animateMotion dur="9s" repeatCount="indefinite">
        <mpath href="#path-laptop"/>
      </animateMotion>
    </circle>
    
    <!-- Large Server to Hub Dot -->
    <circle r="3.5" fill="#1E40AF" opacity="0.8">
      <animateMotion dur="7.5s" repeatCount="indefinite">
        <mpath href="#path-server-large"/>
      </animateMotion>
    </circle>
    
    <!-- Small Database to Hub Dot -->
    <circle r="2" fill="#34D399" opacity="0.8">
      <animateMotion dur="8.5s" repeatCount="indefinite">
        <mpath href="#path-db-small"/>
      </animateMotion>
    </circle>
    
    <!-- Desktop to Hub Dot -->
    <circle r="2.5" fill="#A78BFA" opacity="0.8">
      <animateMotion dur="6.5s" repeatCount="indefinite">
        <mpath href="#path-desktop"/>
      </animateMotion>
    </circle>
    
    <!-- Network Switch to Hub Dot -->
    <circle r="2" fill="#F59E0B" opacity="0.8">
      <animateMotion dur="5.5s" repeatCount="indefinite">
        <mpath href="#path-switch"/>
      </animateMotion>
    </circle>
    
    <!-- Smartphone to Hub Dot -->
    <circle r="2" fill="#EC4899" opacity="0.8">
      <animateMotion dur="7.8s" repeatCount="indefinite">
        <mpath href="#path-smartphone"/>
      </animateMotion>
    </circle>
    
    <!-- Hub to Cloud Data Dots -->
    <circle r="2.5" fill="#60A5FA" opacity="0.9">
      <animateMotion dur="4s" repeatCount="indefinite">
        <mpath href="#path-hub-cloud-1"/>
      </animateMotion>
    </circle>
    
    <circle r="2" fill="#34D399" opacity="0.9">
      <animateMotion dur="3.5s" repeatCount="indefinite" begin="2.5s">
        <mpath href="#path-hub-cloud-2"/>
      </animateMotion>
    </circle>
    
    <circle r="2.5" fill="#A78BFA" opacity="0.9">
      <animateMotion dur="4.2s" repeatCount="indefinite" begin="1s">
        <mpath href="#path-hub-cloud-3"/>
      </animateMotion>
    </circle>
    
    <circle r="2" fill="#FBBF24" opacity="0.9">
      <animateMotion dur="3.8s" repeatCount="indefinite" begin="3.5s">
        <mpath href="#path-hub-cloud-4"/>
      </animateMotion>
    </circle>
  </g>

  <!-- Central Network Hub -->
  <g id="central-hub" transform="translate(375, 175)">
    <!-- Main hub body -->
    <circle cx="25" cy="25" r="25" fill="url(#switchGrad)" filter="url(#glow)">
    </circle>
    <!-- Inner core -->
    <circle cx="25" cy="25" r="15" fill="#6366F1"/>
    <!-- Data flow indicators -->
    <circle cx="25" cy="25" r="8" fill="#8B5CF6">
    </circle>
    <!-- Status lights around the hub -->
    <circle cx="25" cy="10" r="2" fill="#10B981">
      <animate attributeName="opacity" values="1;0.3;1" dur="2s" repeatCount="indefinite"/>
    </circle>
    <circle cx="40" cy="25" r="2" fill="#3B82F6">
      <animate attributeName="opacity" values="1;0.3;1" dur="2.5s" repeatCount="indefinite"/>
    </circle>
    <circle cx="25" cy="40" r="2" fill="#8B5CF6">
      <animate attributeName="opacity" values="1;0.3;1" dur="3s" repeatCount="indefinite"/>
    </circle>
    <circle cx="10" cy="25" r="2" fill="#10B981">
      <animate attributeName="opacity" values="1;0.3;1" dur="2.2s" repeatCount="indefinite"/>
    </circle>
  </g>

  <!-- Large Database (top-left in circle - swapped with server) -->
  <g id="database-large" transform="translate(250, 60)">
    <!-- Cylinder body (using gradient for 3D effect) -->
    <rect x="5" y="35" width="50" height="40" fill="url(#cylinderGrad)" filter="url(#glow)"/>
    <!-- Bottom ellipse -->
    <ellipse cx="30" cy="75" rx="25" ry="8" fill="url(#cylinderGrad)" filter="url(#glow)"/>
    <!-- Top ellipse -->
    <ellipse cx="30" cy="35" rx="25" ry="8" fill="url(#cylinderGrad)" filter="url(#glow)"/>
    <!-- Enhanced status LEDs with glow effect -->
    <circle cx="18" cy="50" r="2.5" fill="#10B981" filter="url(#glow)">
      <animate attributeName="opacity" values="1;0.4;1" dur="1.8s" repeatCount="indefinite"/>
    </circle>
    <circle cx="18" cy="50" r="1.5" fill="#34D399">
      <animate attributeName="opacity" values="1;0.4;1" dur="1.8s" repeatCount="indefinite"/>
    </circle>
    
    <circle cx="30" cy="50" r="2.5" fill="#3B82F6" filter="url(#glow)">
      <animate attributeName="opacity" values="1;0.4;1" dur="2.1s" repeatCount="indefinite"/>
    </circle>
    <circle cx="30" cy="50" r="1.5" fill="#60A5FA">
      <animate attributeName="opacity" values="1;0.4;1" dur="2.1s" repeatCount="indefinite"/>
    </circle>
    
    <circle cx="42" cy="50" r="2.5" fill="#8B5CF6" filter="url(#glow)">
      <animate attributeName="opacity" values="1;0.4;1" dur="2.4s" repeatCount="indefinite"/>
    </circle>
    <circle cx="42" cy="50" r="1.5" fill="#A78BFA">
      <animate attributeName="opacity" values="1;0.4;1" dur="2.4s" repeatCount="indefinite"/>
    </circle>
</g>

  <!-- Small Server (top-right in circle) -->
  <g id="server-small" transform="translate(480, 80)">
    <rect width="45" height="60" rx="4" fill="url(#serverGrad)" filter="url(#glow)">
    </rect>
    <!-- Server Bays -->
    <rect x="8" y="12" width="29" height="8" rx="1" fill="#1E3A8A"/>
    <rect x="8" y="24" width="29" height="8" rx="1" fill="#1E3A8A"/>
    <rect x="8" y="36" width="29" height="8" rx="1" fill="#1E3A8A"/>
    <!-- Status Indicators -->
    <rect x="10" y="48" width="3" height="3" rx="0.5" fill="#10B981">
      <animate attributeName="opacity" values="1;0.3;1" dur="1.5s" repeatCount="indefinite"/>
    </rect>
    <rect x="16" y="48" width="3" height="3" rx="0.5" fill="#3B82F6">
      <animate attributeName="opacity" values="1;0.3;1" dur="1.7s" repeatCount="indefinite"/>
    </rect>
    <rect x="22" y="48" width="3" height="3" rx="0.5" fill="#8B5CF6">
      <animate attributeName="opacity" values="1;0.3;1" dur="1.9s" repeatCount="indefinite"/>
    </rect>
  </g>

  <!-- Router with Antenna (right in circle) -->
  <g id="router" transform="translate(550, 175)">
    <rect width="50" height="30" rx="4" fill="url(#routerGrad)" filter="url(#glow)">
    </rect>
    <!-- Antenna -->
    <line x1="25" y1="0" x2="25" y2="-20" stroke="#8B5CF6" stroke-width="3">
    </line>
    <circle cx="25" cy="-20" r="3" fill="#8B5CF6">
    </circle>
    <!-- Status Lights -->
    <rect x="8" y="20" width="4" height="4" rx="1" fill="#10B981">
      <animate attributeName="opacity" values="1;0.3;1" dur="1.4s" repeatCount="indefinite"/>
    </rect>
    <rect x="16" y="20" width="4" height="4" rx="1" fill="#3B82F6">
      <animate attributeName="opacity" values="1;0.3;1" dur="1.6s" repeatCount="indefinite"/>
    </rect>
    <rect x="24" y="20" width="4" height="4" rx="1" fill="#8B5CF6">
      <animate attributeName="opacity" values="1;0.3;1" dur="1.8s" repeatCount="indefinite"/>
    </rect>
    <rect x="32" y="20" width="4" height="4" rx="1" fill="#F59E0B">
      <animate attributeName="opacity" values="1;0.3;1" dur="2.0s" repeatCount="indefinite"/>
    </rect>
  </g>

  <!-- Laptop (bottom-right in circle - moved up and right) -->
  <g id="laptop" transform="translate(460, 310)">
    <!-- Base -->
    <rect width="50" height="30" rx="3" fill="url(#deviceGrad)" filter="url(#glow)">
    </rect>
    <!-- Screen -->
    <rect x="3" y="-25" width="44" height="28" rx="3" fill="#3B82F6" stroke="#1E3A8A" stroke-width="2" filter="url(#glow)">
    </rect>
    <rect x="6" y="-22" width="38" height="22" rx="2" fill="#6366F1">
    </rect>
    <!-- Trackpad -->
    <rect x="18" y="12" width="14" height="10" rx="2" fill="#3730A3"/>
    <!-- Status Light -->
    <circle cx="42" cy="8" r="1.5" fill="#10B981">
      <animate attributeName="opacity" values="1;0.4;1" dur="2.8s" repeatCount="indefinite"/>
    </circle>
  </g>

  <!-- Large Server (bottom in circle - swapped with database) -->
  <g id="server-large" transform="translate(280, 280)">
    <rect width="70" height="90" rx="5" fill="url(#serverGrad)" filter="url(#glow)">
    </rect>
    <!-- Server Bays -->
    <rect x="10" y="15" width="50" height="10" rx="2" fill="#1E3A8A"/>
    <rect x="10" y="30" width="50" height="10" rx="2" fill="#1E3A8A"/>
    <rect x="10" y="45" width="50" height="10" rx="2" fill="#1E3A8A"/>
    <rect x="10" y="60" width="50" height="10" rx="2" fill="#1E3A8A"/>
    <!-- Status Indicators -->
    <rect x="12" y="75" width="4" height="4" rx="1" fill="#10B981">
      <animate attributeName="opacity" values="1;0.3;1" dur="1.6s" repeatCount="indefinite"/>
    </rect>
    <rect x="20" y="75" width="4" height="4" rx="1" fill="#3B82F6">
      <animate attributeName="opacity" values="1;0.3;1" dur="1.8s" repeatCount="indefinite"/>
    </rect>
    <rect x="28" y="75" width="4" height="4" rx="1" fill="#8B5CF6">
      <animate attributeName="opacity" values="1;0.3;1" dur="2.0s" repeatCount="indefinite"/>
    </rect>
    <rect x="36" y="75" width="4" height="4" rx="1" fill="#F59E0B">
      <animate attributeName="opacity" values="1;0.3;1" dur="2.2s" repeatCount="indefinite"/>
    </rect>
  </g>

  <!-- Small Database (bottom-left in circle) -->
  <g id="database-small" transform="translate(390, 300)">
    <!-- Cylinder body (using gradient for 3D effect) -->
    <rect x="6" y="20" width="28" height="25" fill="url(#cylinderGrad)" filter="url(#glow)"/>
    <!-- Bottom ellipse -->
    <ellipse cx="20" cy="45" rx="14" ry="5" fill="url(#cylinderGrad)" filter="url(#glow)"/>
    <!-- Top ellipse -->
    <ellipse cx="20" cy="20" rx="14" ry="5" fill="url(#cylinderGrad)" filter="url(#glow)"/>
    <!-- Different status indicators - horizontal bar LEDs -->
    <rect x="12" y="30" width="6" height="2" fill="#10B981" rx="1" filter="url(#glow)">
      <animate attributeName="opacity" values="1;0.4;1" dur="2.3s" repeatCount="indefinite"/>
    </rect>
    <rect x="13" y="30.2" width="4" height="1.6" fill="#34D399" rx="0.8">
      <animate attributeName="opacity" values="1;0.4;1" dur="2.3s" repeatCount="indefinite"/>
    </rect>
    
    <rect x="22" y="30" width="6" height="2" fill="#F59E0B" rx="1" filter="url(#glow)">
      <animate attributeName="opacity" values="1;0.4;1" dur="2.7s" repeatCount="indefinite"/>
    </rect>
    <rect x="23" y="30.2" width="4" height="1.6" fill="#FBBF24" rx="0.8">
      <animate attributeName="opacity" values="1;0.4;1" dur="2.7s" repeatCount="indefinite"/>
    </rect>
  </g>

  <!-- Desktop Computer (left in circle - moved down and right) -->
  <g id="desktop" transform="translate(150, 250)">
    <!-- Monitor -->
    <rect width="45" height="30" rx="3" fill="url(#deviceGrad)" stroke="#3B82F6" stroke-width="2" filter="url(#glow)">
    </rect>
    <rect x="4" y="4" width="37" height="22" rx="2" fill="#3B82F6">
    </rect>
    <!-- Stand -->
    <rect x="18" y="30" width="9" height="10" fill="#1E3A8A"/>
    <rect x="12" y="40" width="21" height="4" rx="2" fill="#1E3A8A"/>
    <!-- Tower -->
    <rect x="50" y="20" width="18" height="30" rx="3" fill="url(#deviceGrad)" filter="url(#glow)">
    </rect>
    <!-- Power Button -->
    <circle cx="59" cy="26" r="2" fill="#10B981">
      <animate attributeName="opacity" values="1;0.5;1" dur="3s" repeatCount="indefinite"/>
    </circle>
    <!-- Status Indicators -->
    <rect x="52" y="32" width="3" height="3" rx="0.5" fill="#3B82F6">
      <animate attributeName="opacity" values="1;0.3;1" dur="1.3s" repeatCount="indefinite"/>
    </rect>
    <rect x="58" y="32" width="3" height="3" rx="0.5" fill="#8B5CF6">
      <animate attributeName="opacity" values="1;0.3;1" dur="1.5s" repeatCount="indefinite"/>
    </rect>
    <rect x="64" y="32" width="3" height="3" rx="0.5" fill="#FBBF24">
      <animate attributeName="opacity" values="1;0.3;1" dur="1.7s" repeatCount="indefinite"/>
    </rect>
  </g>

  <!-- Network Switch (left-upper in circle - moved further down) -->
  <g id="network-switch" transform="translate(160, 160)">
    <rect width="80" height="25" rx="3" fill="url(#switchGrad)" filter="url(#glow)">
    </rect>
    <!-- Ethernet Ports -->
    <rect x="10" y="12" width="6" height="5" rx="1" fill="#1E1B4B"/>
    <rect x="20" y="12" width="6" height="5" rx="1" fill="#1E1B4B"/>
    <rect x="30" y="12" width="6" height="5" rx="1" fill="#1E1B4B"/>
    <rect x="40" y="12" width="6" height="5" rx="1" fill="#1E1B4B"/>
    <rect x="50" y="12" width="6" height="5" rx="1" fill="#1E1B4B"/>
    <rect x="60" y="12" width="6" height="5" rx="1" fill="#1E1B4B"/>
    <!-- Activity Lights -->
    <rect x="12" y="5" width="2" height="2" rx="0.5" fill="#10B981">
      <animate attributeName="opacity" values="1;0.3;1" dur="1.2s" repeatCount="indefinite"/>
    </rect>
    <rect x="22" y="5" width="2" height="2" rx="0.5" fill="#3B82F6">
      <animate attributeName="opacity" values="1;0.3;1" dur="1.4s" repeatCount="indefinite"/>
    </rect>
    <rect x="32" y="5" width="2" height="2" rx="0.5" fill="#8B5CF6">
      <animate attributeName="opacity" values="1;0.3;1" dur="1.6s" repeatCount="indefinite"/>
    </rect>
    <rect x="42" y="5" width="2" height="2" rx="0.5" fill="#10B981">
      <animate attributeName="opacity" values="1;0.3;1" dur="1.8s" repeatCount="indefinite"/>
    </rect>
    <rect x="52" y="5" width="2" height="2" rx="0.5" fill="#F59E0B">
      <animate attributeName="opacity" values="1;0.3;1" dur="2.0s" repeatCount="indefinite"/>
    </rect>
    <rect x="62" y="5" width="2" height="2" rx="0.5" fill="#3B82F6">
      <animate attributeName="opacity" values="1;0.3;1" dur="2.2s" repeatCount="indefinite"/>
    </rect>
  </g>

  <!-- Smartphone (right-lower in circle - moved down more) -->
  <g id="smartphone" transform="translate(520, 240)">
    <rect width="22" height="40" rx="5" fill="url(#deviceGrad)" stroke="#3B82F6" stroke-width="2" filter="url(#glow)">
    </rect>
    <rect x="3" y="5" width="16" height="25" rx="2" fill="#3B82F6">
    </rect>
    <!-- Home Button -->
    <circle cx="11" cy="34" r="2.5" fill="#6366F1"/>
    <!-- Battery Indicator -->
    <rect x="15" y="7" width="3" height="2" rx="0.5" fill="#10B981">
      <animate attributeName="opacity" values="1;0.4;1" dur="2.5s" repeatCount="indefinite"/>
    </rect>
  </g>

  <!-- Cloud Device (top in circle) -->
  <g id="cloud" transform="translate(360, 30) scale(1.6)">
    <!-- Classic cloud shape with multiple rounded bumps (20% larger) -->
    <path d="M39.9912,12.5088 C43.4912,13.7408 46.0002,17.0778 46.0002,20.9998 C46.0002,25.9708 41.9702,29.9998 37.0002,29.9998 L8.0002,29.9998 C3.5822,29.9998 0.0002,26.4178 0.0002,21.9998 C0.0002,18.1298 2.7492,14.9018 6.4002,14.1598 L6.4022,14.1658 C6.1422,13.4938 6.0002,12.7638 6.0002,11.9998 C6.0002,8.6868 8.6862,5.9998 12.0002,5.9998 C13.8602,5.9998 15.5232,6.8478 16.6242,8.1768 L16.6222,8.1758 C18.2192,3.4238 22.7102,-0.0002 28.0002,-0.0002 C34.6272,-0.0002 40.0002,5.3728 40.0002,11.9998 C40.0002,12.1698 39.9962,12.3398 39.9892,12.5088 L39.9912,12.5088 Z" 
             fill="url(#cloudGrad)" filter="url(#glow)">
    </path>
    <!-- Cloud status indicators (square shapes, horizontally aligned) -->
    <rect x="11" y="16.5" width="3" height="3" fill="#3B82F6">
    </rect>
    <rect x="21.5" y="16.5" width="3" height="3" fill="#10B981">
    </rect>
    <rect x="32" y="16.5" width="3" height="3" fill="#8B5CF6">
    </rect>
  </g>

</svg>




