<svg width="40" height="40" viewBox="0 0 32 32" fill="none" xmlns="http://www.w3.org/2000/svg">
    <path d="M28 4H4a2 2 0 0 0-2 2v20a2 2 0 0 0 2 2h24a2 2 0 0 0 2-2V6a2 2 0 0 0-2-2zm0 22H4V10h24v16zM4 8V6h24v2H4z" fill="currentColor"/>
    <circle cx="6" cy="7" r="1" fill="currentColor"/>
    <circle cx="9" cy="7" r="1" fill="currentColor"/>
    <circle cx="12" cy="7" r="1" fill="currentColor"/>
    <path d="M8 14l4 4-4 4 1.414 1.414L14.828 18l-5.414-5.414L8 14zM16 22h8v2h-8z" fill="currentColor"/>
</svg>